<svg width="43" height="43" viewBox="0 0 43 43" fill="none" xmlns="http://www.w3.org/2000/svg">
<path d="M42.3549 21.1774C42.3549 27.3264 39.7363 32.8627 35.5494 36.7311C35.547 36.7286 35.5421 36.7286 35.5373 36.7262C26.6821 34.042 28.3403 29.2156 28.3403 29.2156C28.3403 29.2156 31.6154 25.1285 31.4355 22.2983C31.3261 20.6158 31.044 19.8329 30.8301 19.4779C30.7231 19.298 30.4824 19.2493 30.3122 19.3734C29.1403 20.2438 24.4525 23.9784 25.9527 27.2219C25.9527 27.2219 27.9562 30.9711 27.6741 32.1795C27.6741 32.1795 21.6491 28.1239 23.835 21.4376C23.835 21.4376 27.9051 19.0548 27.5428 15.4126C27.1781 11.7704 25.6074 10.6374 25.6074 10.6374C25.6074 10.6374 22.0333 13.3678 22.1014 16.8252C22.1062 17.083 22.1524 17.3383 22.2351 17.5814C22.4685 18.2695 22.9913 20.0079 22.6776 20.9878C22.2886 22.2011 22.8016 25.357 22.8235 25.5005C22.7335 25.3205 19.7843 19.3879 19.9958 18.7023C20.2097 18.0069 20.9902 14.7148 19.7478 12.1983C18.8579 10.3942 17.3042 9.33899 16.497 8.88675C16.215 8.72871 15.86 8.85028 15.7384 9.14934C15.1646 10.5279 13.8954 14.3112 15.9743 16.7912C18.5564 19.8694 21.0121 21.1118 22.4539 27.7155C22.4539 27.7155 20.8905 26.349 19.8475 24.8853C18.8311 23.4581 14.7537 19.0402 9.95413 22.804C9.80338 22.9232 9.85687 23.1615 10.0441 23.2028C10.9388 23.4095 12.9934 24.1243 15.223 26.5289C15.7627 27.11 16.5627 27.3678 17.3383 27.2024C18.5053 26.952 20.1174 26.6335 20.6134 26.67C21.423 26.7307 28.3841 34.8127 28.3841 34.8127L27.2924 34.7422C27.0225 34.7252 26.7769 34.5866 26.6189 34.3702C26.3296 33.9666 25.7582 33.2979 24.9291 32.8603C24.1486 32.4494 23.2222 32.4154 22.3931 32.7266C20.9829 33.259 18.1941 34.4164 17.5376 35.5129C17.4477 35.6637 17.5352 35.8558 17.7054 35.8849C18.3959 35.9992 20.273 36.2667 23.1663 36.3275C23.2028 36.3299 23.2393 36.3275 23.2733 36.325C23.6964 36.2934 26.3831 36.0624 27.1028 35.4473C27.2535 35.3184 27.448 35.2504 27.6474 35.2382C28.6126 35.1725 31.2045 35.2747 34.5258 37.6064C30.8811 40.5702 26.2323 42.35 21.1677 42.35C9.48001 42.3549 0 32.8725 0 21.1774C0 9.48244 9.48001 0 21.1774 0C32.8749 0 42.3549 9.48244 42.3549 21.1774Z" fill="#24BEE0"/>
</svg>
