<svg width="17" height="17" viewBox="0 0 17 17" fill="none" xmlns="http://www.w3.org/2000/svg">
<path d="M16.1961 0.484986C15.7793 0.0571651 15.1624 -0.102219 14.5872 0.0655537L1.17333 3.96627C0.566415 4.13488 0.136239 4.61891 0.0203585 5.23379C-0.0980233 5.85959 0.315479 6.65399 0.8557 6.98618L5.04992 9.56401C5.48009 9.82825 6.03532 9.76198 6.3913 9.40295L11.1941 4.57025C11.4359 4.31859 11.836 4.31859 12.0778 4.57025C12.3196 4.81352 12.3196 5.20779 12.0778 5.45945L7.26666 10.293C6.90985 10.6512 6.84315 11.209 7.10576 11.6419L9.66847 15.8781C9.9686 16.3815 10.4855 16.6667 11.0524 16.6667C11.1191 16.6667 11.1941 16.6667 11.2608 16.6583C11.9111 16.5744 12.4279 16.1298 12.6197 15.5006L16.5963 2.10399C16.7714 1.53357 16.613 0.912806 16.1961 0.484986" fill="white"/>
</svg>
