<svg width="42" height="42" viewBox="0 0 42 42" fill="none" xmlns="http://www.w3.org/2000/svg">
<circle cx="21" cy="21" r="21" fill="#E8E8E8"/>
<path d="M16.45 10.1667H25.55C29.0166 10.1667 31.8333 12.9834 31.8333 16.4501V25.5501C31.8333 27.2165 31.1713 28.8147 29.9929 29.9931C28.8146 31.1714 27.2164 31.8334 25.55 31.8334H16.45C12.9833 31.8334 10.1666 29.0168 10.1666 25.5501V16.4501C10.1666 14.7836 10.8286 13.1854 12.007 12.0071C13.1853 10.8287 14.7835 10.1667 16.45 10.1667ZM16.2333 12.3334C15.1989 12.3334 14.207 12.7443 13.4756 13.4757C12.7442 14.2071 12.3333 15.1991 12.3333 16.2334V25.7667C12.3333 27.9226 14.0775 29.6667 16.2333 29.6667H25.7666C26.801 29.6667 27.793 29.2559 28.5243 28.5245C29.2557 27.7931 29.6666 26.8011 29.6666 25.7667V16.2334C29.6666 14.0776 27.9225 12.3334 25.7666 12.3334H16.2333ZM26.6875 13.9584C27.0466 13.9584 27.391 14.1011 27.645 14.355C27.899 14.609 28.0416 14.9534 28.0416 15.3126C28.0416 15.6717 27.899 16.0162 27.645 16.2701C27.391 16.5241 27.0466 16.6667 26.6875 16.6667C26.3283 16.6667 25.9839 16.5241 25.7299 16.2701C25.476 16.0162 25.3333 15.6717 25.3333 15.3126C25.3333 14.9534 25.476 14.609 25.7299 14.355C25.9839 14.1011 26.3283 13.9584 26.6875 13.9584ZM21 15.5834C22.4365 15.5834 23.8143 16.1541 24.8301 17.1699C25.8459 18.1857 26.4166 19.5635 26.4166 21.0001C26.4166 22.4367 25.8459 23.8144 24.8301 24.8302C23.8143 25.8461 22.4365 26.4167 21 26.4167C19.5634 26.4167 18.1856 25.8461 17.1698 24.8302C16.154 23.8144 15.5833 22.4367 15.5833 21.0001C15.5833 19.5635 16.154 18.1857 17.1698 17.1699C18.1856 16.1541 19.5634 15.5834 21 15.5834ZM21 17.7501C20.138 17.7501 19.3114 18.0925 18.7019 18.702C18.0924 19.3115 17.75 20.1381 17.75 21.0001C17.75 21.862 18.0924 22.6887 18.7019 23.2982C19.3114 23.9077 20.138 24.2501 21 24.2501C21.8619 24.2501 22.6886 23.9077 23.2981 23.2982C23.9076 22.6887 24.25 21.862 24.25 21.0001C24.25 20.1381 23.9076 19.3115 23.2981 18.702C22.6886 18.0925 21.8619 17.7501 21 17.7501Z" fill="#222222"/>
</svg>
