<svg width="42" height="42" viewBox="0 0 42 42" fill="none" xmlns="http://www.w3.org/2000/svg">
<circle cx="21" cy="21" r="21" fill="#E8E8E8"/>
<path d="M15.5184 13.4168C15.5181 13.9914 15.2896 14.5424 14.883 14.9485C14.4765 15.3546 13.9253 15.5826 13.3506 15.5824C12.776 15.5821 12.225 15.3535 11.8189 14.947C11.4128 14.5405 11.1848 13.9892 11.1851 13.4146C11.1853 12.84 11.4139 12.289 11.8204 11.8829C12.227 11.4767 12.7782 11.2487 13.3528 11.249C13.9274 11.2493 14.4784 11.4779 14.8846 11.8844C15.2907 12.2909 15.5187 12.8421 15.5184 13.4168ZM15.5834 17.1868H11.2501V30.7501H15.5834V17.1868ZM22.4301 17.1868H18.1184V30.7501H22.3867V23.6326C22.3867 19.6676 27.5542 19.2993 27.5542 23.6326V30.7501H31.8334V22.1593C31.8334 15.4751 24.1851 15.7243 22.3867 19.0068L22.4301 17.1868Z" fill="#222222"/>
</svg>
