<svg width="42" height="42" viewBox="0 0 42 42" fill="none" xmlns="http://www.w3.org/2000/svg">
<circle cx="21" cy="21" r="21" fill="#E8E8E8"/>
<g clip-path="url(#clip0_68_171)">
<path fill-rule="evenodd" clip-rule="evenodd" d="M29.425 12.7991C29.6927 12.6865 29.9858 12.6476 30.2736 12.6866C30.5614 12.7256 30.8335 12.841 31.0616 13.0209C31.2897 13.2007 31.4654 13.4384 31.5704 13.7092C31.6755 13.98 31.706 14.274 31.6589 14.5606L29.2019 29.464C28.9635 30.9016 27.3862 31.726 26.0678 31.01C24.965 30.4109 23.327 29.4879 21.8536 28.5248C21.117 28.0427 18.8604 26.499 19.1377 25.4005C19.376 24.4612 23.1677 20.9317 25.3344 18.8333C26.1848 18.0089 25.797 17.5333 24.7927 18.2916C22.2978 20.1745 18.2949 23.0377 16.971 23.8437C15.8032 24.5544 15.1944 24.6757 14.4664 24.5544C13.1382 24.3334 11.9065 23.991 10.9011 23.574C9.54262 23.0106 9.6087 21.143 10.9 20.5991L29.425 12.7991Z" fill="#222222"/>
</g>
<defs>
<clipPath id="clip0_68_171">
<rect width="26" height="26" fill="white" transform="translate(8 8)"/>
</clipPath>
</defs>
</svg>
