<svg width="42" height="42" viewBox="0 0 42 42" fill="none" xmlns="http://www.w3.org/2000/svg">
<circle cx="21" cy="21" r="21" fill="#E8E8E8"/>
<path d="M28.6376 13.3191C27.6444 12.3158 26.4614 11.5204 25.1576 10.9791C23.8537 10.4379 22.4552 10.1617 21.0434 10.1666C15.1284 10.1666 10.3076 14.9874 10.3076 20.9024C10.3076 22.7982 10.8059 24.6399 11.7376 26.2649L10.2209 31.8332L15.9084 30.3382C17.4793 31.1941 19.2451 31.6491 21.0434 31.6491C26.9584 31.6491 31.7793 26.8282 31.7793 20.9132C31.7793 18.0424 30.6634 15.3449 28.6376 13.3191ZM21.0434 29.8291C19.4401 29.8291 17.8693 29.3957 16.4934 28.5832L16.1684 28.3882L12.7884 29.2766L13.6876 25.9832L13.4709 25.6474C12.5802 24.225 12.1072 22.5807 12.1059 20.9024C12.1059 15.9841 16.1143 11.9757 21.0326 11.9757C23.4159 11.9757 25.6584 12.9074 27.3376 14.5974C28.1691 15.425 28.828 16.4095 29.2761 17.4936C29.7243 18.5778 29.9528 19.7401 29.9484 20.9132C29.9701 25.8316 25.9618 29.8291 21.0434 29.8291ZM25.9401 23.1557C25.6693 23.0257 24.3476 22.3757 24.1093 22.2782C23.8601 22.1916 23.6868 22.1482 23.5026 22.4082C23.3184 22.6791 22.8093 23.2857 22.6576 23.4591C22.5059 23.6432 22.3434 23.6649 22.0726 23.5241C21.8018 23.3941 20.9351 23.1016 19.9168 22.1916C19.1151 21.4766 18.5843 20.5991 18.4218 20.3282C18.2701 20.0574 18.4001 19.9166 18.5409 19.7757C18.6601 19.6566 18.8118 19.4616 18.9418 19.3099C19.0718 19.1582 19.1259 19.0391 19.2126 18.8657C19.2993 18.6816 19.2559 18.5299 19.1909 18.3999C19.1259 18.2699 18.5843 16.9482 18.3676 16.4066C18.1509 15.8866 17.9234 15.9516 17.7609 15.9407H17.2409C17.0568 15.9407 16.7751 16.0057 16.5259 16.2766C16.2876 16.5474 15.5943 17.1974 15.5943 18.5191C15.5943 19.8407 16.5584 21.1191 16.6884 21.2924C16.8184 21.4766 18.5843 24.1849 21.2709 25.3441C21.9101 25.6257 22.4084 25.7882 22.7984 25.9074C23.4376 26.1132 24.0226 26.0807 24.4884 26.0157C25.0084 25.9399 26.0809 25.3657 26.2976 24.7374C26.5251 24.1091 26.5251 23.5782 26.4493 23.4591C26.3734 23.3399 26.2109 23.2857 25.9401 23.1557Z" fill="#222222"/>
</svg>
