<svg width="28" height="32" viewBox="0 0 28 32" fill="none" xmlns="http://www.w3.org/2000/svg">
<path d="M20.8534 0.0160139C20.7802 -0.0599857 18.1417 0.0460138 15.8457 2.36C13.5497 4.67199 13.903 7.32398 13.9546 7.39198C14.0063 7.45998 17.2285 7.56597 19.2854 4.87599C21.3424 2.186 20.9267 0.0940135 20.8534 0.0160139ZM27.9913 23.4819C27.8879 23.2899 22.9836 21.0139 23.4402 16.6379C23.8968 12.26 27.0479 11.06 27.0974 10.93C27.147 10.8 25.8116 9.34997 24.3965 8.61597C23.3575 8.09848 22.2076 7.80199 21.03 7.74797C20.7974 7.74197 19.9897 7.55797 18.3291 7.97997C17.235 8.25797 14.7688 9.15797 14.0903 9.19397C13.4097 9.22997 11.3851 8.14997 9.20755 7.86397C7.81401 7.61397 6.33647 8.12597 5.27893 8.51997C4.22354 8.91197 2.21615 10.028 0.811842 12.9939C-0.592469 15.9579 0.141994 20.6539 0.667534 22.1139C1.19307 23.5719 2.01369 25.9619 3.40939 27.7059C4.65 29.6739 6.29555 31.0399 6.98263 31.5038C7.6697 31.9678 9.60817 32.2758 10.9522 31.6378C12.0334 31.0219 13.9848 30.6679 14.7559 30.6939C15.5248 30.7199 17.0411 31.0019 18.594 31.7718C19.8239 32.1658 20.987 32.0018 22.1522 31.5618C23.3174 31.1199 25.0039 29.4439 26.9725 26.0459C27.7199 24.4659 28.0602 23.6119 27.9913 23.4819Z" fill="black"/>
</svg>
