<svg width="56" height="46" viewBox="0 0 56 46" fill="none" xmlns="http://www.w3.org/2000/svg">
<g clip-path="url(#clip0_367_1583)">
<g clip-path="url(#clip1_367_1583)">
<g clip-path="url(#clip2_367_1583)">
<path d="M15 16.5C15 16.3674 15.0527 16.2402 15.1464 16.1464C15.2402 16.0527 15.3674 16 15.5 16H17C17.1115 16 17.2199 16.0374 17.3077 16.106C17.3956 16.1747 17.458 16.2708 17.485 16.379L17.89 18H29.5C29.5734 18.0001 29.6459 18.0163 29.7124 18.0476C29.7788 18.0788 29.8375 18.1243 29.8844 18.1808C29.9313 18.2373 29.9651 18.3035 29.9835 18.3745C30.002 18.4456 30.0045 18.5198 29.991 18.592L28.491 26.592C28.4696 26.7066 28.4087 26.8101 28.3191 26.8846C28.2294 26.9591 28.1166 26.9999 28 27H19C18.8834 26.9999 18.7706 26.9591 18.6809 26.8846C18.5913 26.8101 18.5304 26.7066 18.509 26.592L17.01 18.607L16.61 17H15.5C15.3674 17 15.2402 16.9473 15.1464 16.8536C15.0527 16.7598 15 16.6326 15 16.5ZM18.102 19L19.415 26H27.585L28.898 19H18.102ZM20 27C19.4696 27 18.9609 27.2107 18.5858 27.5858C18.2107 27.9609 18 28.4696 18 29C18 29.5304 18.2107 30.0391 18.5858 30.4142C18.9609 30.7893 19.4696 31 20 31C20.5304 31 21.0391 30.7893 21.4142 30.4142C21.7893 30.0391 22 29.5304 22 29C22 28.4696 21.7893 27.9609 21.4142 27.5858C21.0391 27.2107 20.5304 27 20 27ZM27 27C26.4696 27 25.9609 27.2107 25.5858 27.5858C25.2107 27.9609 25 28.4696 25 29C25 29.5304 25.2107 30.0391 25.5858 30.4142C25.9609 30.7893 26.4696 31 27 31C27.5304 31 28.0391 30.7893 28.4142 30.4142C28.7893 30.0391 29 29.5304 29 29C29 28.4696 28.7893 27.9609 28.4142 27.5858C28.0391 27.2107 27.5304 27 27 27ZM20 28C20.2652 28 20.5196 28.1054 20.7071 28.2929C20.8946 28.4804 21 28.7348 21 29C21 29.2652 20.8946 29.5196 20.7071 29.7071C20.5196 29.8946 20.2652 30 20 30C19.7348 30 19.4804 29.8946 19.2929 29.7071C19.1054 29.5196 19 29.2652 19 29C19 28.7348 19.1054 28.4804 19.2929 28.2929C19.4804 28.1054 19.7348 28 20 28ZM27 28C27.2652 28 27.5196 28.1054 27.7071 28.2929C27.8946 28.4804 28 28.7348 28 29C28 29.2652 27.8946 29.5196 27.7071 29.7071C27.5196 29.8946 27.2652 30 27 30C26.7348 30 26.4804 29.8946 26.2929 29.7071C26.1054 29.5196 26 29.2652 26 29C26 28.7348 26.1054 28.4804 26.2929 28.2929C26.4804 28.1054 26.7348 28 27 28Z" fill="#23A6F0"/>
</g>
<path d="M36.5628 18.612H39.6108V27H38.2668V19.872H36.5628V18.612Z" fill="#23A6F0"/>
</g>
</g>
<defs>
<clipPath id="clip0_367_1583">
<rect width="56" height="46" fill="white"/>
</clipPath>
<clipPath id="clip1_367_1583">
<rect width="56" height="46" fill="white"/>
</clipPath>
<clipPath id="clip2_367_1583">
<rect width="16" height="16" fill="white" transform="translate(15 15)"/>
</clipPath>
</defs>
</svg>
