<svg width="55" height="46" viewBox="0 0 55 46" fill="none" xmlns="http://www.w3.org/2000/svg">
<g clip-path="url(#clip0_367_1590)">
<g clip-path="url(#clip1_367_1590)">
<path d="M22.9999 17.748L22.2829 17.011C20.5999 15.281 17.5139 15.878 16.3999 18.053C15.8769 19.076 15.7589 20.553 16.7139 22.438C17.6339 24.253 19.5479 26.427 22.9999 28.795C26.4519 26.427 28.3649 24.253 29.2859 22.438C30.2409 20.552 30.1239 19.076 29.5999 18.053C28.4859 15.878 25.3999 15.28 23.7169 17.01L22.9999 17.748ZM22.9999 30C7.66689 19.868 18.2789 11.96 22.8239 16.143C22.8839 16.198 22.9429 16.255 22.9999 16.314C23.0563 16.2551 23.115 16.1984 23.1759 16.144C27.7199 11.958 38.3329 19.867 22.9999 30Z" fill="#23A6F0"/>
</g>
<path d="M36.5628 18.612H39.6108V27H38.2668V19.872H36.5628V18.612Z" fill="#23A6F0"/>
</g>
<defs>
<clipPath id="clip0_367_1590">
<rect width="56" height="46" fill="white"/>
</clipPath>
<clipPath id="clip1_367_1590">
<rect width="16" height="16" fill="white" transform="translate(15 15)"/>
</clipPath>
</defs>
</svg>
