<svg width="71" height="18" viewBox="0 0 71 18" fill="none" xmlns="http://www.w3.org/2000/svg">
<path d="M-4.29153e-06 17.088V0.287996H3.888V13.92H12.312V17.088H-4.29153e-06ZM22.4631 17.376C21.1351 17.376 19.9031 17.16 18.7671 16.728C17.6471 16.296 16.6711 15.688 15.8391 14.904C15.0231 14.12 14.3831 13.2 13.9191 12.144C13.4711 11.088 13.2471 9.936 13.2471 8.688C13.2471 7.44 13.4711 6.288 13.9191 5.232C14.3831 4.176 15.0311 3.256 15.8631 2.472C16.6951 1.688 17.6711 1.08 18.7911 0.647996C19.9111 0.215997 21.1271 -2.86102e-06 22.4391 -2.86102e-06C23.7671 -2.86102e-06 24.9831 0.215997 26.0871 0.647996C27.2071 1.08 28.1751 1.688 28.9911 2.472C29.8231 3.256 30.4711 4.176 30.9351 5.232C31.3991 6.272 31.6311 7.424 31.6311 8.688C31.6311 9.936 31.3991 11.096 30.9351 12.168C30.4711 13.224 29.8231 14.144 28.9911 14.928C28.1751 15.696 27.2071 16.296 26.0871 16.728C24.9831 17.16 23.7751 17.376 22.4631 17.376ZM22.4391 14.064C23.1911 14.064 23.8791 13.936 24.5031 13.68C25.1431 13.424 25.7031 13.056 26.1831 12.576C26.6631 12.096 27.0311 11.528 27.2871 10.872C27.5591 10.216 27.6951 9.488 27.6951 8.688C27.6951 7.888 27.5591 7.16 27.2871 6.504C27.0311 5.848 26.6631 5.28 26.1831 4.8C25.7191 4.32 25.1671 3.952 24.5271 3.696C23.8871 3.44 23.1911 3.312 22.4391 3.312C21.6871 3.312 20.9911 3.44 20.3511 3.696C19.7271 3.952 19.1751 4.32 18.6951 4.8C18.2151 5.28 17.8391 5.848 17.5671 6.504C17.3111 7.16 17.1831 7.888 17.1831 8.688C17.1831 9.472 17.3111 10.2 17.5671 10.872C17.8391 11.528 18.2071 12.096 18.6711 12.576C19.1511 13.056 19.7111 13.424 20.3511 13.68C20.9911 13.936 21.6871 14.064 22.4391 14.064ZM42.7651 17.376C41.4371 17.376 40.2131 17.168 39.0931 16.752C37.9891 16.32 37.0211 15.712 36.1891 14.928C35.3731 14.144 34.7331 13.224 34.2691 12.168C33.8211 11.112 33.5971 9.952 33.5971 8.688C33.5971 7.424 33.8211 6.264 34.2691 5.208C34.7331 4.152 35.3811 3.232 36.2131 2.448C37.0451 1.664 38.0211 1.064 39.1411 0.647996C40.2611 0.215997 41.4931 -2.86102e-06 42.8371 -2.86102e-06C44.3251 -2.86102e-06 45.6611 0.247997 46.8451 0.743996C48.0451 1.24 49.0531 1.96 49.8691 2.904L47.3731 5.208C46.7651 4.568 46.1011 4.096 45.3811 3.792C44.6611 3.472 43.8771 3.312 43.0291 3.312C42.2131 3.312 41.4691 3.44 40.7971 3.696C40.1251 3.952 39.5411 4.32 39.0451 4.8C38.5651 5.28 38.1891 5.848 37.9171 6.504C37.6611 7.16 37.5331 7.888 37.5331 8.688C37.5331 9.472 37.6611 10.192 37.9171 10.848C38.1891 11.504 38.5651 12.08 39.0451 12.576C39.5411 13.056 40.1171 13.424 40.7731 13.68C41.4451 13.936 42.1811 14.064 42.9811 14.064C43.7491 14.064 44.4931 13.944 45.2131 13.704C45.9491 13.448 46.6611 13.024 47.3491 12.432L49.5571 15.24C48.6451 15.928 47.5811 16.456 46.3651 16.824C45.1651 17.192 43.9651 17.376 42.7651 17.376ZM46.0051 14.736V8.424H49.5571V15.24L46.0051 14.736ZM61.4287 17.376C60.1007 17.376 58.8687 17.16 57.7327 16.728C56.6127 16.296 55.6367 15.688 54.8047 14.904C53.9887 14.12 53.3487 13.2 52.8847 12.144C52.4367 11.088 52.2127 9.936 52.2127 8.688C52.2127 7.44 52.4367 6.288 52.8847 5.232C53.3487 4.176 53.9967 3.256 54.8287 2.472C55.6607 1.688 56.6367 1.08 57.7567 0.647996C58.8767 0.215997 60.0927 -2.86102e-06 61.4047 -2.86102e-06C62.7327 -2.86102e-06 63.9487 0.215997 65.0527 0.647996C66.1727 1.08 67.1407 1.688 67.9567 2.472C68.7887 3.256 69.4367 4.176 69.9007 5.232C70.3647 6.272 70.5967 7.424 70.5967 8.688C70.5967 9.936 70.3647 11.096 69.9007 12.168C69.4367 13.224 68.7887 14.144 67.9567 14.928C67.1407 15.696 66.1727 16.296 65.0527 16.728C63.9487 17.16 62.7407 17.376 61.4287 17.376ZM61.4047 14.064C62.1567 14.064 62.8447 13.936 63.4687 13.68C64.1087 13.424 64.6687 13.056 65.1487 12.576C65.6287 12.096 65.9967 11.528 66.2527 10.872C66.5247 10.216 66.6607 9.488 66.6607 8.688C66.6607 7.888 66.5247 7.16 66.2527 6.504C65.9967 5.848 65.6287 5.28 65.1487 4.8C64.6847 4.32 64.1327 3.952 63.4927 3.696C62.8527 3.44 62.1567 3.312 61.4047 3.312C60.6527 3.312 59.9567 3.44 59.3167 3.696C58.6927 3.952 58.1407 4.32 57.6607 4.8C57.1807 5.28 56.8047 5.848 56.5327 6.504C56.2767 7.16 56.1487 7.888 56.1487 8.688C56.1487 9.472 56.2767 10.2 56.5327 10.872C56.8047 11.528 57.1727 12.096 57.6367 12.576C58.1167 13.056 58.6767 13.424 59.3167 13.68C59.9567 13.936 60.6527 14.064 61.4047 14.064Z" fill="#252B42"/>
</svg>
