<svg width="20" height="20" viewBox="0 0 20 20" fill="none" xmlns="http://www.w3.org/2000/svg">
<g clip-path="url(#clip0_1208_10490)">
<path d="M18.3333 9.99999C18.3333 14.6025 14.6025 18.3333 9.99996 18.3333C5.39746 18.3333 1.66663 14.6025 1.66663 9.99999C1.66663 5.39749 5.39746 1.66666 9.99996 1.66666C14.6025 1.66666 18.3333 5.39749 18.3333 9.99999Z" stroke="black" stroke-width="1.5" stroke-linecap="round" stroke-linejoin="round"/>
<path d="M9.99992 10.8333C10.4419 10.8333 10.8659 10.6577 11.1784 10.3452C11.491 10.0326 11.6666 9.60869 11.6666 9.16667C11.6666 8.72464 11.491 8.30072 11.1784 7.98816C10.8659 7.6756 10.4419 7.5 9.99992 7.5C9.55789 7.5 9.13397 7.6756 8.82141 7.98816C8.50885 8.30072 8.33325 8.72464 8.33325 9.16667C8.33325 9.60869 8.50885 10.0326 8.82141 10.3452C9.13397 10.6577 9.55789 10.8333 9.99992 10.8333ZM9.99992 10.8333V13.3333" stroke="black" stroke-width="1.5" stroke-linecap="round" stroke-linejoin="round"/>
</g>
<defs>
<clipPath id="clip0_1208_10490">
<rect width="20" height="20" fill="white"/>
</clipPath>
</defs>
</svg>
