<svg width="85" height="15" viewBox="0 0 85 15" fill="none" xmlns="http://www.w3.org/2000/svg">
<path d="M34 7.5C34 5.51088 34.7902 3.60322 36.1967 2.1967C37.6032 0.790176 39.5109 0 41.5 0C43.4891 0 45.3968 0.790176 46.8033 2.1967C48.2098 3.60322 49 5.51088 49 7.5C49 9.48912 48.2098 11.3968 46.8033 12.8033C45.3968 14.2098 43.4891 15 41.5 15C39.5109 15 37.6032 14.2098 36.1967 12.8033C34.7902 11.3968 34 9.48912 34 7.5ZM41.5 2.8125C40.2568 2.8125 39.0645 3.30636 38.1854 4.18544C37.3064 5.06451 36.8125 6.2568 36.8125 7.5C36.8125 8.7432 37.3064 9.93549 38.1854 10.8146C39.0645 11.6936 40.2568 12.1875 41.5 12.1875C42.7432 12.1875 43.9355 11.6936 44.8146 10.8146C45.6936 9.93549 46.1875 8.7432 46.1875 7.5C46.1875 6.2568 45.6936 5.06451 44.8146 4.18544C43.9355 3.30636 42.7432 2.8125 41.5 2.8125Z" fill="white"/>
<path d="M27 8C27 9.32608 26.4205 10.5979 25.3891 11.5355C24.3576 12.4732 22.9587 13 21.5 13C20.0413 13 18.6424 12.4732 17.6109 11.5355C16.5795 10.5979 16 9.32608 16 8C16 6.67392 16.5795 5.40215 17.6109 4.46447C18.6424 3.52678 20.0413 3 21.5 3C22.9587 3 24.3576 3.52678 25.3891 4.46447C26.4205 5.40215 27 6.67392 27 8Z" fill="white"/>
<path d="M68 8C68 9.5913 67.3679 11.1174 66.2426 12.2426C65.1174 13.3679 63.5913 14 62 14C60.4087 14 58.8826 13.3679 57.7574 12.2426C56.6321 11.1174 56 9.5913 56 8C56 6.4087 56.6321 4.88258 57.7574 3.75736C58.8826 2.63214 60.4087 2 62 2C63.5913 2 65.1174 2.63214 66.2426 3.75736C67.3679 4.88258 68 6.4087 68 8Z" fill="white"/>
<path d="M85 7.5C85 8.69347 84.5259 9.83807 83.682 10.682C82.8381 11.5259 81.6935 12 80.5 12C79.3065 12 78.1619 11.5259 77.318 10.682C76.4741 9.83807 76 8.69347 76 7.5C76 6.30653 76.4741 5.16193 77.318 4.31802C78.1619 3.47411 79.3065 3 80.5 3C81.6935 3 82.8381 3.47411 83.682 4.31802C84.5259 5.16193 85 6.30653 85 7.5Z" fill="white"/>
<path d="M44 7.5C44 8.16304 43.7366 8.79893 43.2678 9.26777C42.7989 9.73661 42.163 10 41.5 10C40.837 10 40.2011 9.73661 39.7322 9.26777C39.2634 8.79893 39 8.16304 39 7.5C39 6.83696 39.2634 6.20107 39.7322 5.73223C40.2011 5.26339 40.837 5 41.5 5C42.163 5 42.7989 5.26339 43.2678 5.73223C43.7366 6.20107 44 6.83696 44 7.5Z" fill="white"/>
<path d="M7 7.5C7 8.42826 6.63125 9.3185 5.97487 9.97487C5.3185 10.6313 4.42826 11 3.5 11C2.57174 11 1.6815 10.6313 1.02513 9.97487C0.368749 9.3185 0 8.42826 0 7.5C0 6.57174 0.368749 5.6815 1.02513 5.02513C1.6815 4.36875 2.57174 4 3.5 4C4.42826 4 5.3185 4.36875 5.97487 5.02513C6.63125 5.6815 7 6.57174 7 7.5Z" fill="white"/>
</svg>
